<?xml version="1.0" encoding="UTF-8" standalone="no"?>
<svg width="259px" height="68px" viewBox="0 0 259 68" version="1.1" xmlns="http://www.w3.org/2000/svg" xmlns:xlink="http://www.w3.org/1999/xlink" xmlns:sketch="http://www.bohemiancoding.com/sketch/ns">
    <title>logo-color</title>
    <description>Created with Sketch (http://www.bohemiancoding.com/sketch)</description>
    <defs>
        <linearGradient x1="50%" y1="0%" x2="50%" y2="100%" id="linearGradient-1">
            <stop stop-color="#59F3EB" offset="0%"></stop>
            <stop stop-color="#39AAA5" offset="100%"></stop>
        </linearGradient>
        <filter x="-50%" y="-50%" width="200%" height="200%" filterUnits="objectBoundingBox" id="filter-2">
            <feOffset dx="0" dy="2" in="SourceAlpha" result="shadowOffsetOuter1"></feOffset>
            <feGaussianBlur stdDeviation="1" in="shadowOffsetOuter1" result="shadowBlurOuter1"></feGaussianBlur>
            <feColorMatrix values="0 0 0 0 0   0 0 0 0 0   0 0 0 0 0  0 0 0 0.7 0" in="shadowBlurOuter1" type="matrix" result="shadowMatrixOuter1"></feColorMatrix>
            <feOffset dx="0" dy="1" in="SourceAlpha" result="shadowOffsetInner1"></feOffset>
            <feGaussianBlur stdDeviation="0" in="shadowOffsetInner1" result="shadowBlurInner1"></feGaussianBlur>
            <feComposite in="shadowBlurInner1" in2="SourceAlpha" operator="arithmetic" k2="-1" k3="1" result="shadowInnerInner1"></feComposite>
            <feColorMatrix values="0 0 0 0 1   0 0 0 0 1   0 0 0 0 1  0 0 0 0.7 0" in="shadowInnerInner1" type="matrix" result="shadowMatrixInner1"></feColorMatrix>
            <feMerge>
                <feMergeNode in="shadowMatrixOuter1"></feMergeNode>
                <feMergeNode in="SourceGraphic"></feMergeNode>
                <feMergeNode in="shadowMatrixInner1"></feMergeNode>
            </feMerge>
        </filter>
    </defs>
    <g id="Page-1" stroke="none" stroke-width="1" fill="none" fill-rule="evenodd" sketch:type="MSPage">
        <path d="M25.1034483,28.0373134 C24.3218352,27.1865629 23.4597748,26.4813461 22.5172414,25.9216418 C21.5747079,25.3619375 20.5057531,25.0820896 19.3103448,25.0820896 C17.7930959,25.0820896 16.5977055,25.4962645 15.7241379,26.3246269 C14.8505703,27.1529892 14.4137931,28.6417803 14.4137931,30.7910448 L14.4137931,50 L2,50 L2,14.738806 L14.4137931,14.738806 L14.4137931,17.2910448 C15.4712697,16.2611889 16.6206834,15.4552268 17.862069,14.8731343 C19.1034545,14.2910419 20.5287276,14 22.137931,14 C23.471271,14 24.5976966,14.134327 25.5172414,14.4029851 C26.4367862,14.6716431 27.2643641,15.0298485 28,15.4776119 L25.1034483,28.0373134 Z M46,5.93181818 C46,7.84091864 45.3493655,9.32954011 44.0480769,10.3977273 C42.7467884,11.4659144 41.0416772,12 38.9326923,12 C36.9134514,12 35.2532116,11.4659144 33.9519231,10.3977273 C32.6506345,9.32954011 32,7.84091864 32,5.93181818 C32,4.20453682 32.6506345,2.78409648 33.9519231,1.67045455 C35.2532116,0.556812614 36.9134514,0 38.9326923,0 C41.0416772,0 42.7467884,0.556812614 44.0480769,1.67045455 C45.3493655,2.78409648 46,4.20453682 46,5.93181818 Z M33,51 L33,15 L45,15 L45,51 L33,51 Z M85,32.6556927 C85,39.1029129 83.9311172,43.858238 81.7933194,46.9218107 C79.6555217,49.9853834 76.6715571,51.5171468 72.8413361,51.5171468 C71.1043754,51.5171468 69.6123932,51.1856457 68.3653445,50.5226337 C67.1182958,49.8596217 66.0048762,49.1394643 65.0250522,48.3621399 L65.0250522,59.0617284 L53,64 L53,14.7544582 L65.0250522,14.7544582 L65.0250522,17.2921811 C66.2275634,16.3319568 67.4411908,15.543213 68.6659708,14.9259259 C69.8907507,14.3086389 71.438404,14 73.308977,14 C74.9568628,14 76.4933819,14.3429321 77.9185804,15.0288066 C79.3437789,15.7146811 80.5796747,16.8120638 81.6263048,18.3209877 C82.6729349,19.8299115 83.4968655,21.7617623 84.0981211,24.1165981 C84.6993767,26.4714338 85,29.3177702 85,32.6556927 Z M73,32.8047809 C73,31.0438159 72.9228658,29.5876552 72.768595,28.436255 C72.6143243,27.2848548 72.3829217,26.3818094 72.0743802,25.7270916 C71.7658387,25.0723739 71.3691484,24.6208512 70.8842975,24.37251 C70.3994466,24.1241687 69.8484879,24 69.231405,24 C68.3498579,24 67.5785157,24.1580329 66.9173554,24.4741036 C66.256195,24.7901742 65.617083,25.1965447 65,25.6932271 L65,39.3067729 C65.617083,39.8034553 66.256195,40.2098258 66.9173554,40.5258964 C67.5785157,40.8419671 68.3718962,41 69.2975207,41 C69.9146036,41 70.4545431,40.8871193 70.9173554,40.6613546 C71.3801676,40.4355898 71.7658387,40.0179313 72.0743802,39.4083665 C72.3829217,38.7988017 72.6143243,37.9634847 72.768595,36.9023904 C72.9228658,35.8412962 73,34.47544 73,32.8047809 Z M124,32.6556927 C124,39.1029129 122.931117,43.858238 120.793319,46.9218107 C118.655522,49.9853834 115.671557,51.5171468 111.841336,51.5171468 C110.104375,51.5171468 108.612393,51.1856457 107.365344,50.5226337 C106.118296,49.8596217 105.004876,49.1394643 104.025052,48.3621399 L104.025052,59.0617284 L92,64 L92,14.7544582 L104.025052,14.7544582 L104.025052,17.2921811 C105.227563,16.3319568 106.441191,15.543213 107.665971,14.9259259 C108.890751,14.3086389 110.438404,14 112.308977,14 C113.956863,14 115.493382,14.3429321 116.91858,15.0288066 C118.343779,15.7146811 119.579675,16.8120638 120.626305,18.3209877 C121.672935,19.8299115 122.496865,21.7617623 123.098121,24.1165981 C123.699377,26.4714338 124,29.3177702 124,32.6556927 Z M112,32.8047809 C112,31.0438159 111.922866,29.5876552 111.768595,28.436255 C111.614324,27.2848548 111.382922,26.3818094 111.07438,25.7270916 C110.765839,25.0723739 110.369148,24.6208512 109.884298,24.37251 C109.399447,24.1241687 108.848488,24 108.231405,24 C107.349858,24 106.578516,24.1580329 105.917355,24.4741036 C105.256195,24.7901742 104.617083,25.1965447 104,25.6932271 L104,39.3067729 C104.617083,39.8034553 105.256195,40.2098258 105.917355,40.5258964 C106.578516,40.8419671 107.371896,41 108.297521,41 C108.914604,41 109.454543,40.8871193 109.917355,40.6613546 C110.380168,40.4355898 110.765839,40.0179313 111.07438,39.4083665 C111.382922,38.7988017 111.614324,37.9634847 111.768595,36.9023904 C111.922866,35.8412962 112,34.47544 112,32.8047809 Z M131,51 L131,5.9382716 L143,1 L143,51 L131,51 Z M182,33.6160878 L182,34.9351005 C182,35.3184053 181.977497,35.6678839 181.932489,35.9835466 L161.139241,35.9835466 C161.364277,37.9677125 162.005621,39.4107207 163.063291,40.3126143 C164.120962,41.2145079 165.482411,41.6654479 167.147679,41.6654479 C168.722933,41.6654479 170.208151,41.4737984 171.603376,41.0904936 C172.998601,40.7071888 174.573831,40.0645993 176.329114,39.1627057 L180.987342,46.9414991 C178.781986,48.2492448 176.520405,49.2525864 174.202532,49.9515539 C171.884658,50.6505215 169.330534,51 166.540084,51 C163.884656,51 161.521811,50.54906 159.451477,49.6471664 C157.381143,48.7452728 155.64839,47.4826407 154.253165,45.8592322 C152.85794,44.2358237 151.800285,42.285508 151.080169,40.0082267 C150.360053,37.7309453 150,35.2395016 150,32.5338208 C150,29.4673826 150.405059,26.7842894 151.21519,24.4844607 C152.025321,22.184632 153.150485,20.2568634 154.590717,18.7010969 C156.03095,17.1453304 157.7412,15.9728863 159.721519,15.1837294 C161.701838,14.3945725 163.862154,14 166.202532,14 C171.063315,14 174.911378,15.6233841 177.746835,18.8702011 C180.582293,22.1170181 182,27.0322645 182,33.6160878 Z M171,28 C170.688887,26.333325 170.16667,25.0833375 169.433333,24.25 C168.699996,23.4166625 167.444453,23 165.666667,23 C162.955542,23 161.400002,24.66665 161,28 L171,28 Z M201,43.9298246 C201,46.2690175 200.246384,48.1988228 198.73913,49.7192982 C197.231877,51.2397737 195.318852,52 193,52 C190.681148,52 188.768123,51.2397737 187.26087,49.7192982 C185.753616,48.1988228 185,46.2690175 185,43.9298246 C185,41.5906316 185.753616,39.6842179 187.26087,38.2105263 C188.768123,36.7368347 190.681148,36 193,36 C195.318852,36 197.231877,36.7368347 198.73913,38.2105263 C200.246384,39.6842179 201,41.5906316 201,43.9298246 Z M221,5.93181818 C221,7.84091864 220.349365,9.32954011 219.048077,10.3977273 C217.746788,11.4659144 216.041677,12 213.932692,12 C211.913451,12 210.253212,11.4659144 208.951923,10.3977273 C207.650635,9.32954011 207,7.84091864 207,5.93181818 C207,4.20453682 207.650635,2.78409648 208.951923,1.67045455 C210.253212,0.556812614 211.913451,0 213.932692,0 C216.041677,0 217.746788,0.556812614 219.048077,1.67045455 C220.349365,2.78409648 221,4.20453682 221,5.93181818 Z M220,47.4164345 C220,50.2372472 219.695949,52.6144286 219.087838,54.5480501 C218.479727,56.4816717 217.53379,58.0967902 216.25,59.393454 C214.96621,60.6901179 213.310821,61.7024105 211.283784,62.4303621 C209.256747,63.1583138 206.846861,63.6815212 204.054054,64 L200,55.5376045 C201.486494,55.3556165 202.736481,55.0826388 203.75,54.718663 C204.763519,54.3546871 205.574321,53.8883501 206.182432,53.3196379 C206.790544,52.7509257 207.218467,52.0457331 207.466216,51.204039 C207.713965,50.3623449 207.837838,49.3273042 207.837838,48.0988858 L207.837838,15 L220,15 L220,47.4164345 Z M257,39.0274223 C257,43.1310382 255.669738,46.1523364 253.009174,48.0914077 C250.348611,50.0304789 246.701858,51 242.068807,51 C239.408244,51 236.816526,50.7407095 234.293578,50.2221207 C231.77063,49.7035318 229.339461,48.9933013 227,48.0914077 L229.889908,38.8921389 C232.091754,39.8391272 234.316503,40.5944518 236.56422,41.1581353 C238.811938,41.7218188 240.738524,42.0036563 242.344037,42.0036563 C243.536703,42.0036563 244.385319,41.8683743 244.889908,41.5978062 C245.394498,41.3272381 245.646789,40.9213921 245.646789,40.3802559 C245.646789,39.7940251 245.463305,39.3543586 245.09633,39.0612431 C244.729356,38.7681277 243.949547,38.4637432 242.756881,38.1480804 C239.958702,37.4265656 237.607808,36.716335 235.704128,36.0173675 C233.800449,35.3183999 232.263767,34.5067079 231.094037,33.5822669 C229.924306,32.657826 229.075691,31.5642964 228.548165,30.3016453 C228.02064,29.0389943 227.756881,27.4832512 227.756881,25.6343693 C227.756881,21.9817002 228.972465,19.1295045 231.40367,17.0776965 C233.834875,15.0258886 237.527498,14 242.481651,14 C243.857805,14 245.11926,14.0563675 246.266055,14.1691042 C247.41285,14.2818409 248.536692,14.4396699 249.637615,14.642596 C250.738538,14.845522 251.839444,15.1160861 252.940367,15.4542962 C254.04129,15.7925063 255.188067,16.1645318 256.380734,16.5703839 L253.62844,25.9725777 C251.243107,24.9354001 249.133037,24.1800755 247.298165,23.7065814 C245.463294,23.2330872 243.743127,22.9963437 242.137615,22.9963437 C240.944948,22.9963437 240.142204,23.1203522 239.729358,23.3683729 C239.316512,23.6163937 239.110092,24.0109662 239.110092,24.5521024 C239.110092,24.8226705 239.144495,25.059414 239.213303,25.26234 C239.28211,25.4652661 239.442659,25.6569156 239.694954,25.8372943 C239.947249,26.0176731 240.314218,26.1980491 240.795872,26.3784278 C241.277525,26.5588065 241.908253,26.7617295 242.688073,26.9872029 C245.211022,27.6636231 247.378431,28.3400332 249.190367,29.0164534 C251.002303,29.6928736 252.493113,30.4820186 253.662844,31.3839122 C254.832575,32.2858059 255.68119,33.3455149 256.208716,34.5630713 C256.736241,35.7806277 257,37.2687298 257,39.0274223 Z" id="ripple.js" fill="url(#linearGradient-1)" filter="url(#filter-2)" sketch:type="MSShapeGroup"></path>
    </g>
</svg>