<?xml version="1.0" encoding="UTF-8" standalone="no"?>
<svg width="263px" height="66px" viewBox="0 0 263 66" version="1.1" xmlns="http://www.w3.org/2000/svg" xmlns:xlink="http://www.w3.org/1999/xlink" xmlns:sketch="http://www.bohemiancoding.com/sketch/ns">
    <title>logo</title>
    <description>Created with Sketch (http://www.bohemiancoding.com/sketch)</description>
    <defs></defs>
    <g id="Page-1" stroke="none" stroke-width="1" fill="none" fill-rule="evenodd" sketch:type="MSPage">
        <path d="M23.45,28.84 C22.6566627,27.9533289 21.7816715,27.2183363 20.825,26.635 C19.8683285,26.0516638 18.7833394,25.76 17.57,25.76 C16.0299923,25.76 14.8166711,26.1916624 13.93,27.055 C13.0433289,27.9183377 12.6,29.4699888 12.6,31.71 L12.6,51.73 L0,51.73 L0,14.98 L12.6,14.98 L12.6,17.64 C13.6733387,16.5666613 14.8399937,15.7266697 16.1,15.12 C17.3600063,14.5133303 18.8066585,14.21 20.44,14.21 C21.7933401,14.21 22.936662,14.3499986 23.87,14.63 C24.803338,14.9100014 25.6433296,15.283331 26.39,15.75 L23.45,28.84 Z M45.36,6.09 C45.36,8.0500098 44.6833401,9.57832785 43.33,10.675 C41.9766599,11.7716722 40.2033443,12.32 38.01,12.32 C35.9099895,12.32 34.1833401,11.7716722 32.83,10.675 C31.4766599,9.57832785 30.8,8.0500098 30.8,6.09 C30.8,4.3166578 31.4766599,2.85833905 32.83,1.715 C34.1833401,0.57166095 35.9099895,0 38.01,0 C40.2033443,0 41.9766599,0.57166095 43.33,1.715 C44.6833401,2.85833905 45.36,4.3166578 45.36,6.09 Z M31.71,51.73 L31.71,14.98 L44.31,14.98 L44.31,51.73 L31.71,51.73 Z M86.03,33.25 C86.03,39.8300329 84.9100112,44.6833177 82.67,47.81 C80.4299888,50.9366823 77.3033534,52.5 73.29,52.5 C71.4699909,52.5 69.9066732,52.1616701 68.6,51.485 C67.2933268,50.80833 66.1266718,50.0733373 65.1,49.28 L65.1,60.2 L52.5,65.24 L52.5,14.98 L65.1,14.98 L65.1,17.57 C66.3600063,16.5899951 67.6316602,15.7850032 68.915,15.155 C70.1983398,14.5249969 71.8199902,14.21 73.78,14.21 C75.5066753,14.21 77.1166592,14.5599965 78.61,15.26 C80.1033408,15.9600035 81.3983279,17.0799923 82.495,18.62 C83.5916722,20.1600077 84.4549969,22.1316547 85.085,24.535 C85.7150032,26.9383454 86.03,29.8433163 86.03,33.25 Z M73.57,33.67 C73.57,31.8499909 73.4883341,30.345006 73.325,29.155 C73.1616658,27.9649941 72.9166683,27.0316701 72.59,26.355 C72.2633317,25.67833 71.8433359,25.211668 71.33,24.955 C70.8166641,24.6983321 70.2333366,24.57 69.58,24.57 C68.646662,24.57 67.8300035,24.7333317 67.13,25.06 C66.4299965,25.3866683 65.7533366,25.8066641 65.1,26.32 L65.1,40.39 C65.7533366,40.9033359 66.4299965,41.3233317 67.13,41.65 C67.8300035,41.9766683 68.6699951,42.14 69.65,42.14 C70.3033366,42.14 70.8749975,42.0233345 71.365,41.79 C71.8550024,41.5566655 72.2633317,41.1250032 72.59,40.495 C72.9166683,39.8649969 73.1616658,39.0016722 73.325,37.905 C73.4883341,36.8083279 73.57,35.3966753 73.57,33.67 Z M126.07,33.25 C126.07,39.8300329 124.950011,44.6833177 122.71,47.81 C120.469989,50.9366823 117.343353,52.5 113.33,52.5 C111.509991,52.5 109.946673,52.1616701 108.64,51.485 C107.333327,50.80833 106.166672,50.0733373 105.14,49.28 L105.14,60.2 L92.54,65.24 L92.54,14.98 L105.14,14.98 L105.14,17.57 C106.400006,16.5899951 107.67166,15.7850032 108.955,15.155 C110.23834,14.5249969 111.85999,14.21 113.82,14.21 C115.546675,14.21 117.156659,14.5599965 118.65,15.26 C120.143341,15.9600035 121.438328,17.0799923 122.535,18.62 C123.631672,20.1600077 124.494997,22.1316547 125.125,24.535 C125.755003,26.9383454 126.07,29.8433163 126.07,33.25 Z M113.61,33.67 C113.61,31.8499909 113.528334,30.345006 113.365,29.155 C113.201666,27.9649941 112.956668,27.0316701 112.63,26.355 C112.303332,25.67833 111.883336,25.211668 111.37,24.955 C110.856664,24.6983321 110.273337,24.57 109.62,24.57 C108.686662,24.57 107.870003,24.7333317 107.17,25.06 C106.469996,25.3866683 105.793337,25.8066641 105.14,26.32 L105.14,40.39 C105.793337,40.9033359 106.469996,41.3233317 107.17,41.65 C107.870003,41.9766683 108.709995,42.14 109.69,42.14 C110.343337,42.14 110.914998,42.0233345 111.405,41.79 C111.895002,41.5566655 112.303332,41.1250032 112.63,40.495 C112.956668,39.8649969 113.201666,39.0016722 113.365,37.905 C113.528334,36.8083279 113.61,35.3966753 113.61,33.67 Z M132.93,51.73 L132.93,5.74 L145.53,0.7 L145.53,51.73 L132.93,51.73 Z M185.43,34.51 L185.43,35.875 C185.43,36.2716687 185.406667,36.6333317 185.36,36.96 L163.8,36.96 C164.033335,39.0133436 164.698328,40.506662 165.795,41.44 C166.891672,42.373338 168.303325,42.84 170.03,42.84 C171.663342,42.84 173.203326,42.6416687 174.65,42.245 C176.096674,41.8483314 177.729991,41.183338 179.55,40.25 L184.38,48.3 C182.093322,49.6533401 179.748345,50.6916631 177.345,51.415 C174.941655,52.138337 172.293348,52.5 169.4,52.5 C166.646653,52.5 164.196677,52.033338 162.05,51.1 C159.903323,50.166662 158.106674,48.8600084 156.66,47.18 C155.213326,45.4999916 154.11667,43.4816785 153.37,41.125 C152.62333,38.7683216 152.25,36.190014 152.25,33.39 C152.25,30.2166508 152.669996,27.4400119 153.51,25.06 C154.350004,22.6799881 155.516659,20.6850081 157.01,19.075 C158.503341,17.464992 160.276656,16.2516708 162.33,15.435 C164.383344,14.6183293 166.623321,14.21 169.05,14.21 C174.090025,14.21 178.079985,15.8899832 181.02,19.25 C183.960015,22.6100168 185.43,27.6966326 185.43,34.51 Z M174.3,29.12 C173.973332,27.253324 173.425004,25.853338 172.655,24.92 C171.884996,23.986662 170.566676,23.52 168.7,23.52 C165.853319,23.52 164.220002,25.386648 163.8,29.12 L174.3,29.12 Z M205.1,44.45 C205.1,46.783345 204.341674,48.7083258 202.825,50.225 C201.308326,51.7416743 199.383345,52.5 197.05,52.5 C194.716655,52.5 192.791674,51.7416743 191.275,50.225 C189.758326,48.7083258 189,46.783345 189,44.45 C189,42.116655 189.758326,40.2150074 191.275,38.745 C192.791674,37.2749927 194.716655,36.54 197.05,36.54 C199.383345,36.54 201.308326,37.2749927 202.825,38.745 C204.341674,40.2150074 205.1,42.116655 205.1,44.45 Z M225.96,6.09 C225.96,8.0500098 225.28334,9.57832785 223.93,10.675 C222.57666,11.7716722 220.803344,12.32 218.61,12.32 C216.50999,12.32 214.78334,11.7716722 213.43,10.675 C212.07666,9.57832785 211.4,8.0500098 211.4,6.09 C211.4,4.3166578 212.07666,2.85833905 213.43,1.715 C214.78334,0.57166095 216.50999,0 218.61,0 C220.803344,0 222.57666,0.57166095 223.93,1.715 C225.28334,2.85833905 225.96,4.3166578 225.96,6.09 Z M224.91,48.23 C224.91,51.1233478 224.595003,53.5616568 223.965,55.545 C223.334997,57.5283433 222.355007,59.1849934 221.025,60.515 C219.694993,61.8450067 217.980011,62.8833296 215.88,63.63 C213.77999,64.3766704 211.283348,64.9133317 208.39,65.24 L204.19,56.56 C205.730008,56.3733324 207.024995,56.0933352 208.075,55.72 C209.125005,55.3466648 209.964997,54.8683363 210.595,54.285 C211.225003,53.7016638 211.668332,52.9783377 211.925,52.115 C212.181668,51.2516624 212.31,50.1900063 212.31,48.93 L212.31,14.98 L224.91,14.98 L224.91,48.23 Z M262.71,40.11 C262.71,44.3566879 261.35668,47.4833233 258.65,49.49 C255.94332,51.4966767 252.233357,52.5 247.52,52.5 C244.81332,52.5 242.17668,52.2316694 239.61,51.695 C237.043321,51.1583307 234.570012,50.423338 232.19,49.49 L235.13,39.97 C237.370011,40.9500049 239.633322,41.7316638 241.92,42.315 C244.206678,42.8983363 246.166659,43.19 247.8,43.19 C249.013339,43.19 249.876664,43.0500014 250.39,42.77 C250.903336,42.4899986 251.16,42.0700028 251.16,41.51 C251.16,40.9033303 250.973335,40.4483349 250.6,40.145 C250.226665,39.8416652 249.433339,39.5266683 248.22,39.2 C245.373319,38.4533296 242.981676,37.718337 241.045,36.995 C239.108324,36.2716631 237.545006,35.4316715 236.355,34.475 C235.164994,33.5183286 234.301669,32.3866732 233.765,31.08 C233.228331,29.7733268 232.96,28.1633429 232.96,26.25 C232.96,22.4699811 234.196654,19.518344 236.67,17.395 C239.143346,15.2716561 242.899975,14.21 247.94,14.21 C249.340007,14.21 250.623328,14.2683328 251.79,14.385 C252.956673,14.5016673 254.099994,14.664999 255.22,14.875 C256.340006,15.0850011 257.459994,15.3649983 258.58,15.715 C259.700006,16.0650018 260.866661,16.4499979 262.08,16.87 L259.28,26.6 C256.853321,25.5266613 254.706676,24.7450025 252.84,24.255 C250.973324,23.7649976 249.223342,23.52 247.59,23.52 C246.376661,23.52 245.560002,23.6483321 245.14,23.905 C244.719998,24.161668 244.51,24.5699972 244.51,25.13 C244.51,25.4100014 244.545,25.654999 244.615,25.865 C244.685,26.0750011 244.848332,26.2733324 245.105,26.46 C245.361668,26.6466676 245.734998,26.8333324 246.225,27.02 C246.715002,27.2066676 247.356663,27.4166655 248.15,27.65 C250.71668,28.3500035 252.921657,29.0499965 254.765,29.75 C256.608343,30.4500035 258.124994,31.266662 259.315,32.2 C260.505006,33.133338 261.368331,34.2299937 261.905,35.49 C262.441669,36.7500063 262.71,38.2899909 262.71,40.11 Z" id="ripple.js" fill="#FFFFFF" sketch:type="MSShapeGroup"></path>
    </g>
</svg>