<?xml version="1.0" encoding="UTF-8" standalone="no"?>
<svg width="138px" height="46px" viewBox="0 0 138 46" version="1.1" xmlns="http://www.w3.org/2000/svg" xmlns:xlink="http://www.w3.org/1999/xlink" xmlns:sketch="http://www.bohemiancoding.com/sketch/ns">
    <title>segment</title>
    <description>Created with Sketch (http://www.bohemiancoding.com/sketch)</description>
    <defs></defs>
    <g id="Page-1" stroke="none" stroke-width="1" fill="none" fill-rule="evenodd" sketch:type="MSPage">
        <g id="segmentio-white" sketch:type="MSLayerGroup" transform="translate(0.000000, 20.000000)" fill="#FFFFFF">
            <g id="Group" sketch:type="MSShapeGroup">
                <path d="M4.58115436,20 C4.08663694,20 3.5660923,19.9733863 3.04554766,19.9190344 C1.89998795,19.7574781 1.35341607,19.6225354 0,19.0557763 L0.312326786,18.0028488 L0.624653573,16.6530475 L0.83287143,15.519904 L1.30136161,15.4389385 C1.84793349,16.2755829 2.10820581,16.5998201 2.62875045,17.004648 C3.38354019,17.5714072 4.24243885,17.868281 5.15375346,17.868281 C7.00168695,17.868281 8.27738282,16.7887398 8.27738282,15.1964165 C8.27738282,14.5213284 8.0171105,13.8466152 7.57464755,13.388185 C7.08013014,12.875403 6.50753103,12.4971887 4.9458971,11.6335557 C2.9154115,10.5806282 2.23870346,10.1491866 1.50994096,9.42012145 C0.677069526,8.55648849 0.208579347,7.34200465 0.208579347,5.99220331 C0.208217858,2.42934253 2.96710447,0 7.0541029,0 C7.47053862,0 7.88697433,0.0269885299 8.27738282,0.0809655896 C9.37052657,0.188919709 9.96915291,0.377839418 11.3749849,0.944598546 L11.0106037,1.97016268 L10.6201952,3.31958917 L10.4119773,4.1562336 L9.99554163,4.18322213 C9.42294252,3.37356623 9.13664297,3.04970388 8.61609833,2.72584152 C8.04349922,2.3480021 7.28870948,2.15908239 6.53355826,2.15908239 C4.9458971,2.15908239 3.90480781,3.07669241 3.90480781,4.48009596 C3.90480781,5.18179774 4.21713459,5.85651098 4.76370647,6.34267936 C5.31027835,6.80148437 5.93493192,7.17932379 7.44487288,7.96199115 C9.50102422,9.01454382 10.1520665,9.4463603 10.8548018,10.3103681 C11.6095915,11.2009896 12,12.3075193 12,13.576355 C11.9996385,17.301147 8.90203639,20 4.58115436,20 L4.58115436,20 Z" id="Shape"></path>
                <path d="M25.9464431,12.3315576 L25.6498418,12.6792293 L24.3825451,12.6792293 L21.6049035,12.6525138 L19.1238632,12.6792293 L17.8565665,12.7322891 C17.9374578,15.8583658 19.6095853,17.6486709 22.4947075,17.6486709 C22.8991639,17.6486709 23.2766565,17.6219554 23.6541491,17.5418091 C24.3012793,17.4349474 24.6518082,17.2479394 25.3798297,16.7136307 L25.7573223,16.9273542 L25.2450109,18.1829795 L24.8405545,19.3588296 C24.4091344,19.4920357 24.0586055,19.5988975 23.8159317,19.6526994 C22.8718256,19.8664228 21.7663115,20 20.8495437,20 C16.7237141,20 14,17.2483104 14,13.0532453 C14,8.88526676 16.6694121,6 20.5256041,6 C23.8425209,6 25.9999961,8.05708834 25.9999961,11.2098805 C26.0003706,11.4766638 25.9734069,11.8506798 25.9464431,12.3315576 L25.9464431,12.3315576 Z M20.7223043,8 C19.7755588,8 19.0650887,8.30032051 18.591716,8.92307692 C18.1775148,9.45384615 18.0887574,9.82339744 18,11 L19.3609467,11 L21.3136094,10.9538462 C22.5266271,10.9307692 22.9999999,10.6307692 22.9999999,9.91538462 C23.0004108,8.83076923 22.0240794,8 20.7223043,8 L20.7223043,8 Z" id="Shape"></path>
                <path d="M42.5253091,7.34870576 L42.1071475,8.18420708 C41.2708242,8.13030377 40.9362949,8.10335211 40.4902558,8.10335211 C40.4066235,8.10335211 40.2951137,8.10335211 40.2114814,8.13030377 L39.932707,8.13030377 C40.4066235,8.85799847 40.5181332,9.20836999 40.5181332,10.0438713 C40.5181332,12.8468435 38.2596732,14.5451721 34.468341,14.5451721 C33.771405,14.5451721 33.520508,14.5182204 32.8514494,14.3830878 C32.2939005,14.8682176 32.1266359,15.1381085 32.1266359,15.5150574 C32.1266359,16.4587396 33.1302238,16.8087368 35.8347229,16.8087368 L37.2564725,16.8087368 C40.4345009,16.8087368 42.0239023,18.048513 42.0239023,20.501488 C42.0239023,23.7899643 38.9012416,26 34.2174441,26 C30.509357,26 28,24.4637556 28,22.1994423 C28,21.5256509 28.2230195,20.9596661 28.6411812,20.501488 C29.0314654,20.0972131 29.3102398,19.9085515 30.2863375,19.4234217 L31.0390284,19.0457242 L30.4814796,18.830111 C29.5053819,18.4527878 28.9203428,17.7250931 28.9203428,16.9704468 C28.9203428,16.3232327 29.2827495,15.7576223 30.0911954,15.1104082 L31.4854547,14.0053903 C29.8402984,13.169889 29.0876074,11.9840162 29.0876074,10.3395909 C29.0876074,7.64405098 31.3460675,6 35.0541545,6 C36.3086394,6 37.0059627,6.10780662 37.9816732,6.45817814 L40.5189076,6.43122649 C41.299476,6.43122649 41.7455151,6.40427483 42.8048579,6.29646821 L43,6.53903311 L42.5253091,7.34870576 L42.5253091,7.34870576 Z M38.1329513,20.5392483 C37.4337186,20.0902212 36.6785471,20 34.3007672,20 C33.0701175,20 32.7624551,20.060286 32.2306497,20.3895726 C31.4195397,20.8685348 31,21.5271079 31,22.3357725 C31,23.9822052 32.4823735,25 34.8321841,25 C37.2934835,25 39,23.8624647 39,22.185681 C39,21.4971728 38.6923376,20.8685348 38.1329513,20.5392483 L38.1329513,20.5392483 Z M34.9727878,7 C34.8917144,7 34.8376654,7.02884423 34.7836164,7.02884423 C33.5675143,7.14422114 33,7.98070375 33,9.6829138 C33,11.7885424 33.7296613,13 35.0538613,13 C36.3243877,13 37,12.0769847 37,10.3459304 C36.9996247,8.21145757 36.2429389,7 34.9727878,7 L34.9727878,7 Z" id="Shape"></path>
                <path d="M64.8020873,19.9423772 L62.6519681,19.9423772 L61.5088668,19.998824 C61.5905169,19.4343553 61.672545,19.0106118 61.6993837,18.7287694 C61.7814118,18.051015 61.8630619,16.2168837 61.8630619,14.6359793 L61.8630619,12.2652107 L61.8630619,12.0954781 C61.8630619,11.0794344 61.8082505,10.5714126 61.672545,10.0916142 C61.4275947,9.2449111 60.6651491,8.70866583 59.7125647,8.70866583 C58.9501192,8.70866583 58.2152683,9.04734705 57.6437176,9.6400392 C56.9905169,10.3456251 56.8272167,10.8818704 56.8272167,12.6603388 L56.8272167,14.6642027 C56.8272167,17.2329273 56.9905169,18.7852163 57.3715507,19.998824 L56.1740159,19.9423772 L54.0235188,19.9423772 L52.8804175,19.998824 C52.9620675,19.4343553 53.0165009,19.0106118 53.0165009,18.7287694 C53.098151,18.051015 53.1798011,16.2168837 53.2070178,14.6359793 L53.2342345,12.2652107 L53.2342345,12.1240935 C53.2342345,11.1080498 53.1798011,10.5435811 53.0437176,10.0916142 C52.7715507,9.2449111 52.0094831,8.70866583 51.0837374,8.70866583 C50.2944531,8.70866583 49.586819,9.04734705 49.0148903,9.6400392 C48.3616895,10.3456251 48.1983893,10.9100938 48.1983893,12.6603388 L48.1983893,14.6642027 C48.1983893,17.2329273 48.3616895,18.7852163 48.7427233,19.998824 L47.5451886,19.9423772 L45.3950694,19.9423772 L44.2519681,19.998824 C44.3336182,19.4343553 44.3880516,19.0106118 44.4152683,18.7287694 C44.4969184,18.051015 44.5785685,16.1318214 44.5785685,14.6359793 L44.6330019,11.4749545 C44.6330019,10.0920062 44.5513518,9.10418592 44.4152683,8.53971721 C44.2791848,7.94702506 43.8709343,7.6647907 43.2177336,7.6647907 L43,7.6647907 L43.544334,6.39473611 L44.6330019,6.33828923 L46.8103377,6.28184236 L48.1171173,6.19717206 L48.0626839,8.59655607 L49.1513518,7.63695926 C50.4577533,6.50802184 51.5464212,6 52.9076342,6 C54.7859643,6 56.0379325,6.8749265 56.6366998,8.65339493 L57.7798011,7.63735125 C59.0589859,6.50841383 60.1748706,6.00039199 61.5088668,6.00039199 C62.9241351,6.00039199 64.0676144,6.53663727 64.7752486,7.52445751 C65.3471773,8.37116058 65.5100994,9.1049699 65.4828827,11.1374493 L65.456044,14.6653787 C65.4288273,17.2341033 65.6193442,18.7863923 66,20 L64.8020873,19.9423772 L64.8020873,19.9423772 Z" id="Shape"></path>
                <path d="M79.945698,12.3311866 L79.6490965,12.6788582 L78.3817995,12.6788582 L75.6041569,12.6521428 L73.1234903,12.6788582 L71.8558187,12.7322891 C71.93671,15.8583658 73.6088381,17.6486709 76.4939612,17.6486709 C76.8984178,17.6486709 77.276285,17.6219554 77.6537777,17.5418091 C78.3012827,17.4349474 78.6514371,17.2479394 79.3794589,16.7136307 L79.7569516,16.9273542 L79.24464,18.1829795 L78.8401835,19.3588296 C78.4087632,19.4920357 78.0582342,19.5988975 77.8155603,19.6526994 C76.8718285,19.8664228 75.766314,20 74.8495459,20 C70.7233405,20 68,17.2483104 68,13.0532453 C68,8.88526676 70.6697875,6 74.5259807,6 C77.8425241,6 80,8.05708834 80,11.2098805 C79.9996255,11.4762927 79.9726617,11.8503088 79.945698,12.3311866 L79.945698,12.3311866 Z M74.7220807,8 C73.7750021,8 73.0654121,8.30032051 72.5916674,8.92307692 C72.1775002,9.45384615 72.0887501,9.82339744 72,11 L73.3608349,11 L75.313748,10.9538462 C76.5266661,10.9307692 77,10.6307692 77,9.91538462 C77,8.83076923 76.0237489,8 74.7220807,8 L74.7220807,8 Z" id="Shape"></path>
                <path d="M95.7679113,19.9435515 L93.5571477,19.9435515 L92.381805,20 C92.465758,19.4355155 92.5500998,19.0117601 92.5776954,18.7299098 C92.6340528,18.2783222 92.6620372,17.6009408 92.6896328,16.6973736 C92.7176172,15.7941984 92.7459902,15.1168169 92.7459902,14.6366131 L92.7459902,12.2657781 C92.7459902,11.1081929 92.6896328,10.5719326 92.5221154,10.0921207 C92.2422719,9.24539396 91.4027414,8.70913367 90.3669318,8.70913367 C89.5553857,8.70913367 88.7718239,9.04782438 88.1841526,9.64053312 C87.4845438,10.3461388 87.3166377,10.9106233 87.3166377,12.6609173 L87.3166377,14.6648373 C87.3166377,17.2050176 87.4849325,18.7859663 87.8763247,19.999608 L86.6450133,19.9431595 L84.4342497,19.9431595 L83.2589071,19.999608 C83.3708445,19.4351235 83.4268132,19.0113681 83.4547975,18.7295178 C83.5387506,18.0517444 83.6227036,16.1324971 83.6227036,14.6366131 L83.679061,11.4754998 C83.679061,10.0925127 83.5671236,9.10466484 83.4272018,8.54018032 C83.2876687,7.94747158 82.8954992,7.66522932 82.2238748,7.66522932 L82,7.66522932 L82.559687,6.39513916 L83.679061,6.33869071 L85.9181976,6.28224226 L87.233462,6.19756958 L87.1774933,8.56840455 L88.3248517,7.6370051 C89.7520535,6.47941984 90.8154588,6 92.2706449,6 C93.7821885,6 94.9575312,6.53626029 95.7131086,7.52410819 C96.3287643,8.37083497 96.4966704,9.13288906 96.468686,11.1372011 L96.4407017,14.6652293 C96.4127173,17.2340259 96.6086078,18.7863583 97,20 L95.7679113,19.9435515 L95.7679113,19.9435515 Z" id="Shape"></path>
                <path d="M107.578655,7.18232828 L107.212472,8.21360851 C106.113532,8.13002257 105.719573,8.10216059 104.845976,8.10216059 L103.71926,8.10216059 L103.634756,10.6658497 L103.634756,13.6192196 L103.634756,13.8142535 C103.634756,15.2356014 103.662533,15.6535311 103.803764,16.2107707 C104.029107,17.1302161 104.733305,17.6595937 105.691014,17.6595937 C106.310708,17.6595937 106.789953,17.5202838 107.49376,17.158078 L107.831775,17.3531119 L107.550096,18.2446953 L107.268026,19.4148984 C105.634287,19.8606901 104.817026,20 103.916044,20 C101.099253,20 99.8876413,18.606901 99.8876413,15.3470493 L99.8876413,14.0653983 L99.9158092,11.3627862 C99.9435859,9.88610126 99.8309143,8.91054499 99.6904659,8.35330539 C99.5496264,7.76820381 99.1552756,7.48958401 98.4788545,7.48958401 L98,7.48958401 L98.562967,6.09609803 L100.02809,6.06823605 C100.02809,5.17665269 99.9999218,4.9255079 99.915418,3.6717188 L100.985799,3.30951306 L102.732209,2.52937762 L103.689918,2 L103.999765,2.30648178 C103.80259,3.61599484 103.774422,3.97820058 103.718086,6.09609803 L105.661672,6.12396001 L105.831071,6.12396001 C106.760612,6.12396001 106.985955,6.09609803 107.802825,5.92892615 L108,6.20754595 L107.578655,7.18232828 L107.578655,7.18232828 Z" id="Shape"></path>
                <path d="M112.625937,19.5526725 C112.337796,19.8680676 111.733939,20 110.582975,20 C109.316515,20 109,19.657926 109,18.3422567 C109,17.2893559 109.143871,16.6582001 109.431612,16.3947008 C109.719752,16.1315669 110.381157,16 111.417424,16 C112.712259,16 113,16.3157606 113,17.6581087 L113,17.8686158 C113,18.9211512 112.884904,19.2632252 112.625937,19.5526725 L112.625937,19.5526725 Z" id="Shape"></path>
                <path d="M120.748108,18.9462064 L118.501415,18.9462064 L117.307576,18.9992631 C117.393273,18.468696 117.449352,18.0704022 117.478181,17.8054871 C117.563878,17.1684381 117.648786,15.3645098 117.648786,13.9585069 L117.706049,10.987331 C117.706049,9.68744154 117.621141,8.75894907 117.478576,8.22838194 C117.3368,7.67128646 116.910288,7.40600289 116.227473,7.40600289 L116,7.40600289 L116.569078,6.21222685 L117.706049,6.15917014 L120.322385,6.07958507 L121.687619,6 C121.516225,8.33486382 121.431712,9.28988465 121.431712,10.4571323 L121.431712,13.9857722 C121.431712,16.4002211 121.602317,17.8592807 122,19 L120.748108,18.9462064 L120.748108,18.9462064 Z M120.973837,1.88531746 C120.948033,2.91388889 120.870979,3.28531746 120.61258,3.57142857 C120.328376,3.88571429 119.73488,4 118.599498,4 C117.309291,4 117,3.68571429 117,2.37142857 C117,1.28571429 117.128662,0.657142857 117.438312,0.4 C117.722516,0.142857143 118.393065,0 119.399785,0 C120.715796,0 121,0.314285714 121,1.68611111 C120.999642,1.74246032 120.999642,1.79960317 120.973837,1.88531746 L120.973837,1.88531746 Z" id="Shape"></path>
                <path d="M130.678551,20 C126.467674,20 124,17.5277215 124,13.2821196 C124,8.90217507 126.708296,6 131.054009,6 L131.34864,6 C135.613154,6 138,8.39167289 138,12.6104062 C138,17.1246935 135.130793,20 130.678551,20 L130.678551,20 Z M131.038778,8 C130.9605,8 130.856971,8 130.75272,8.02702426 C128.882703,8.24321834 128,9.83802505 128,13.1083359 C128,16.8921077 129.06451,19 130.986473,19 C132.986713,19 134,17.2704473 134,13.8646398 C134,10.1082676 132.934768,8 131.038778,8 L131.038778,8 Z" id="Shape"></path>
            </g>
        </g>
        <path d="M43,0 L43,9.1 L46.848,9.1 C47.2986614,9.1 47.7038279,9.04366673 48.0635,8.931 C48.4231661,8.81833347 48.7286661,8.65366673 48.98,8.437 C49.2313331,8.22033347 49.4263331,7.96033347 49.565,7.657 C49.7036669,7.35366753 49.773,7.01133426 49.773,6.63 C49.773,6.30066673 49.7231669,6.00816673 49.6235,5.7525 C49.5238331,5.49683347 49.3873331,5.278 49.214,5.096 C49.0406669,4.914 48.8413331,4.7645 48.616,4.6475 C48.3906729,4.5305 48.1523394,4.446 47.901,4.394 C48.2909877,4.22066653 48.6116542,3.95416653 48.863,3.5945 C49.1143331,3.23483902 49.24,2.79067249 49.24,2.262 C49.24,1.93268042 49.1858331,1.62934735 49.0775,1.352 C48.9691669,1.07469788 48.811,0.836364807 48.603,0.637 C48.395,0.437666931 48.135,0.281666931 47.823,0.169 C47.511,0.0563330688 47.1556665,0 46.757,0 L43,0 Z M46.77,8.307 L43.975,8.307 L43.975,4.849 L46.783,4.849 C47.4156665,4.849 47.9075,5.00716653 48.2585,5.3235 C48.6095,5.63983347 48.785,6.05366673 48.785,6.565 C48.785,7.12833327 48.6116669,7.5595 48.265,7.8585 C47.9183335,8.1575 47.42,8.307 46.77,8.307 Z M46.536,4.056 L43.975,4.056 L43.975,0.793 L46.536,0.793 C47.0906614,0.793 47.5153279,0.9425 47.81,1.2415 C48.1046665,1.5405 48.252,1.924 48.252,2.392 C48.252,2.61732117 48.2151665,2.82965463 48.1415,3.029 C48.0678335,3.22833347 47.9595,3.40383347 47.8165,3.5555 C47.6735,3.70716653 47.4958335,3.8285 47.2835,3.9195 C47.0711665,4.0105 46.822,4.056 46.536,4.056 Z M54.973,9.282 C55.5103335,9.282 55.9956665,9.20183327 56.429,9.0415 C56.8623335,8.88116673 57.2306669,8.65583347 57.534,8.3655 C57.8373045,8.07516653 58.0691376,7.73066653 58.2295,7.332 C58.3898331,6.93333327 58.47,6.5 58.47,6.032 L58.47,0 L57.456,0 L57.456,6.123 C57.456,6.83366673 57.235,7.397 56.793,7.813 C56.351,8.229 55.7443335,8.437 54.973,8.437 C54.2016665,8.437 53.5949998,8.229 53.153,7.813 C52.711,7.397 52.49,6.83366673 52.49,6.123 L52.49,0 L51.476,0 L51.476,6.032 C51.476,6.5 51.5561665,6.93333327 51.7165,7.332 C51.8768335,7.73066653 52.1086667,8.07516653 52.412,8.3655 C52.7153321,8.65583347 53.0836653,8.88116673 53.517,9.0415 C53.9503335,9.20183327 54.4356665,9.282 54.973,9.282 Z M60.823,0 L60.823,9.1 L61.837,9.1 L61.837,0 L60.823,0 Z M64.268,0 L64.268,9.1 L69.949,9.1 L69.949,8.255 L65.282,8.255 L65.282,0 L64.268,0 Z M72.718,0.845 L72.718,9.1 L73.732,9.1 L73.732,0.845 L76.514,0.845 L76.514,0 L69.936,0 L69.936,0.845 L72.718,0.845 Z M80.921,0 L80.921,9.1 L84.769,9.1 C85.2196614,9.1 85.6248279,9.04366673 85.9845,8.931 C86.3441661,8.81833347 86.6496661,8.65366673 86.901,8.437 C87.1523331,8.22033347 87.3473331,7.96033347 87.486,7.657 C87.6246669,7.35366753 87.694,7.01133426 87.694,6.63 C87.694,6.30066673 87.6441669,6.00816673 87.5445,5.7525 C87.4448331,5.49683347 87.3083331,5.278 87.135,5.096 C86.9616669,4.914 86.7623331,4.7645 86.537,4.6475 C86.3116729,4.5305 86.0733394,4.446 85.822,4.394 C86.2119877,4.22066653 86.5326542,3.95416653 86.784,3.5945 C87.0353331,3.23483902 87.161,2.79067249 87.161,2.262 C87.161,1.93268042 87.1068331,1.62934735 86.9985,1.352 C86.8901669,1.07469788 86.732,0.836364807 86.524,0.637 C86.316,0.437666931 86.056,0.281666931 85.744,0.169 C85.432,0.0563330688 85.0766665,0 84.678,0 L80.921,0 Z M84.691,8.307 L81.896,8.307 L81.896,4.849 L84.704,4.849 C85.3366665,4.849 85.8285,5.00716653 86.1795,5.3235 C86.5305,5.63983347 86.706,6.05366673 86.706,6.565 C86.706,7.12833327 86.5326669,7.5595 86.186,7.8585 C85.8393335,8.1575 85.341,8.307 84.691,8.307 Z M84.457,4.056 L81.896,4.056 L81.896,0.793 L84.457,0.793 C85.0116614,0.793 85.4363279,0.9425 85.731,1.2415 C86.0256665,1.5405 86.173,1.924 86.173,2.392 C86.173,2.61732117 86.1361665,2.82965463 86.0625,3.029 C85.9888335,3.22833347 85.8805,3.40383347 85.7375,3.5555 C85.5945,3.70716653 85.4168335,3.8285 85.2045,3.9195 C84.9921665,4.0105 84.743,4.056 84.457,4.056 Z M91.165,5.655 L91.165,9.1 L92.179,9.1 L92.179,5.655 L95.416,0 L94.35,0 L91.672,4.732 L88.994,0 L87.928,0 L91.165,5.655 Z" id="BUILT-BY" fill="#FFFFFF" sketch:type="MSShapeGroup"></path>
    </g>
</svg>